<svg xmlns="http://www.w3.org/2000/svg" viewBox="0 0 730 380" role="img" aria-label="xivhud-journal illustration"><defs><linearGradient id="bg" x2="1" y2="1"><stop stop-color="#101722"/><stop offset="1" stop-color="#203744"/></linearGradient></defs><rect width="730" height="380" fill="url(#bg)"/><g fill="none" stroke="#d8b26a" opacity=".24"><rect x="32" y="32" width="666" height="316" rx="14"/><path d="M60 310H670M60 70H670"/></g><g transform="translate(245 60) scale(3.75)" fill="none" stroke="#d8b26a" stroke-width="1.2" stroke-linejoin="round"><path d="M12 13h16q4 0 4 5q0-5 4-5h16v36H36q-4 0-4 5q0-5-4-5H12zM32 18v36M18 25h8M38 25h8M18 32h8M38 32h8"/></g><circle cx="570" cy="110" r="8" fill="#6fd6d0" opacity=".8"/><circle cx="145" cy="265" r="5" fill="#6fd6d0" opacity=".5"/></svg>
